<?xml version="1.0" encoding="UTF-8" standalone="no"?>
<svg width="23px" height="23px" viewBox="0 0 23 23" version="1.1" xmlns="http://www.w3.org/2000/svg" xmlns:xlink="http://www.w3.org/1999/xlink">
    <!-- Generator: Sketch 41.2 (35397) - http://www.bohemiancoding.com/sketch -->
    <title>Group</title>
    <desc>Created with Sketch.</desc>
    <defs></defs>
    <g id="Symbols" stroke="none" stroke-width="1" fill="none" fill-rule="evenodd">
        <g id="single-line-field" transform="translate(-259.000000, 0.000000)" fill="#9A9A9A">
            <g id="Group-2-Copy-2">
                <g id="Group" transform="translate(259.000000, 0.000000)">
                    <path d="M0.323058004,22.7328688 C0.375527772,22.8130081 0.42799754,22.8664344 0.506702193,22.9198606 C0.559171961,22.9198606 0.585406846,22.9465738 0.585406846,22.9465738 C0.637876614,23 0.664111498,23 0.690346382,23 L0.795285919,23 L4.75675343,21.9849013 L9.13797909,20.8629501 C9.21668375,20.8362369 9.2953884,20.7828107 9.37409305,20.7293844 L22.7276491,7.13240418 C22.8325886,7.02555168 22.8850584,6.89198606 22.8850584,6.75842044 L22.8063538,3.71312427 L22.8063538,3.60627178 C22.8063538,3.5261324 22.8063538,3.5261324 22.7801189,3.49941928 C22.753884,3.41927991 22.7276491,3.41927991 22.7276491,3.39256678 C22.7014142,3.36585366 22.7014142,3.33914053 22.6751793,3.31242741 L19.6056979,0.240418118 C19.579463,0.213704994 19.5532281,0.18699187 19.5269932,0.18699187 C19.4745235,0.160278746 19.4745235,0.133565621 19.4482886,0.133565621 C19.3695839,0.106852497 19.3695839,0.106852497 19.343349,0.0801393728 L19.2384095,0.0801393728 L16.2738676,0 C16.1426932,0 16.0115188,0.0534262485 15.9065792,0.160278746 L2.52678828,13.757259 C2.47431851,13.8106852 2.42184874,13.8908246 2.39561386,13.9976771 L1.24127895,18.5656214 L0.296823119,22.3855981 C0.296823119,22.4123113 0.270588235,22.4657375 0.270588235,22.4924506 C0.270588235,22.5458769 0.270588235,22.5993031 0.296823119,22.6260163 C0.296823119,22.6794425 0.323058004,22.7061556 0.323058004,22.7328688 Z M2.13326501,19.3135889 C2.21196967,19.340302 2.29067432,19.3670151 2.36937897,19.4204413 C2.39561386,19.4204413 2.42184874,19.4471545 2.44808362,19.4471545 C2.52678828,19.5005807 2.63172781,19.5272938 2.71043247,19.5807201 C2.71043247,19.5807201 2.73666735,19.5807201 2.73666735,19.6074332 C2.815372,19.6608595 2.89407666,19.7142857 2.94654642,19.767712 C2.97278131,19.7944251 2.99901619,19.7944251 2.99901619,19.8211382 C3.07772084,19.8745645 3.1564255,19.9547038 3.23513015,20.0348432 C3.3138348,20.1149826 3.36630457,20.195122 3.44500922,20.2752613 C3.47124411,20.3019744 3.47124411,20.3286876 3.49747899,20.3286876 C3.54994876,20.4088269 3.60241853,20.4889663 3.6548883,20.5423926 C3.6548883,20.5423926 3.6548883,20.5691057 3.68112318,20.5691057 C3.73359295,20.6492451 3.78606272,20.7293844 3.8122976,20.8362369 C3.8122976,20.8629501 3.83853249,20.8896632 3.83853249,20.9163763 C3.86476737,20.9965157 3.91723714,21.0766551 3.94347202,21.1567944 L3.94347202,21.1835075 L1.47739291,21.8246225 L2.10703013,19.3135889 C2.10703013,19.3135889 2.10703013,19.3135889 2.13326501,19.3135889 Z M19.2384095,1.30894309 L21.5995491,3.71312427 L9.05927444,16.4819977 L6.69813486,14.0778165 L19.2384095,1.30894309 Z M9.61020701,19.0464576 L9.55773724,17.3902439 L21.835663,4.88850174 L21.8618979,6.51800232 L9.61020701,19.0464576 Z M16.4575118,1.04181185 L18.0578397,1.06852497 L5.8061488,13.5702671 L4.20582086,13.543554 L16.4575118,1.04181185 Z M3.3138348,14.5319396 L5.8061488,14.5853659 L8.58704653,17.416957 L8.63951629,19.9547038 L4.91416274,20.9163763 L4.91416274,20.8896632 C4.91416274,20.8629501 4.88792785,20.8362369 4.88792785,20.8095238 C4.86169297,20.7560976 4.83545809,20.6759582 4.8092232,20.6225319 C4.8092232,20.5958188 4.78298832,20.5691057 4.78298832,20.5423926 C4.75675343,20.4889663 4.73051855,20.4088269 4.70428366,20.3554007 C4.70428366,20.3286876 4.67804878,20.3019744 4.67804878,20.2752613 C4.62557901,20.195122 4.59934413,20.1149826 4.54687436,20.0348432 C4.54687436,20.0081301 4.52063948,20.0081301 4.52063948,19.981417 C4.46816971,19.9279907 4.44193482,19.8478513 4.38946505,19.7944251 C4.36323017,19.767712 4.36323017,19.7409988 4.33699529,19.7142857 C4.28452552,19.6608595 4.25829063,19.6074332 4.20582086,19.554007 C4.17958598,19.5272938 4.17958598,19.5005807 4.1533511,19.5005807 C4.10088133,19.4204413 4.02217668,19.3670151 3.96970691,19.2868757 C3.89100225,19.2067364 3.83853249,19.1533101 3.75982783,19.0998839 C3.73359295,19.0731707 3.70735807,19.0731707 3.70735807,19.0464576 C3.6548883,18.9930314 3.60241853,18.9663182 3.54994876,18.912892 C3.52371388,18.8861789 3.49747899,18.8861789 3.47124411,18.8594657 C3.41877434,18.8060395 3.34006969,18.7793264 3.28759992,18.7259001 C3.20889527,18.7259001 3.20889527,18.7259001 3.18266038,18.7259001 C3.10395573,18.6724739 3.02525108,18.6190476 2.94654642,18.5923345 C2.92031154,18.5923345 2.89407666,18.5656214 2.89407666,18.5656214 C2.84160689,18.5389082 2.76290223,18.5121951 2.71043247,18.485482 C2.68419758,18.485482 2.6579627,18.4587689 2.63172781,18.4587689 C2.57925804,18.4320557 2.50055339,18.4053426 2.44808362,18.3786295 C2.42184874,18.3786295 2.39561386,18.3519164 2.39561386,18.3519164 L2.36937897,18.3519164 L3.3138348,14.5319396 Z" id="Shape"></path>
                </g>
            </g>
        </g>
    </g>
</svg>