<?xml version="1.0" encoding="UTF-8"?>
<svg width="41px" height="46px" viewBox="0 0 41 46" version="1.1" xmlns="http://www.w3.org/2000/svg" xmlns:xlink="http://www.w3.org/1999/xlink">
    <!-- Generator: Sketch 48.2 (47327) - http://www.bohemiancoding.com/sketch -->
    <title>veohrc_logo</title>
    <desc>Created with Sketch.</desc>
    <defs></defs>
    <g id="Page-1" stroke="none" stroke-width="1" fill="none" fill-rule="evenodd">
        <g id="veohrc_logo">
            <path d="M20.336,46 C25.513,45.999 30.801,43.582 34.749,39.632 C42.648,31.734 42.648,18.926 34.752,11.029 C34.655,10.932 34.551,10.839 34.452,10.746 C41.763,18.349 41.673,30.438 34.18,37.929 C30.378,41.731 25.313,43.727 20.336,43.727 C15.352,43.727 10.295,41.731 6.493,37.929 C-0.999,30.438 -1.088,18.349 6.222,10.746 C6.122,10.839 6.019,10.932 5.921,11.029 C-1.974,18.926 -1.974,31.734 5.925,39.632 C9.874,43.582 15.161,46 20.336,46" id="Fill-27" fill="#0099CE"></path>
            <path d="M20.335,39.684 C16.166,39.684 12.064,37.624 9.117,34.679 C3.112,28.672 3.404,18.803 8.782,13.053 C8.674,13.155 8.558,13.241 8.453,13.347 C2.383,19.417 1.985,30.093 8.432,36.538 C11.565,39.671 15.659,41.893 20.336,41.893 C25.013,41.893 29.085,39.646 32.216,36.515 C38.666,30.067 38.291,19.417 32.222,13.347 C32.117,13.241 32,13.155 31.893,13.053 C37.27,18.803 37.537,28.646 31.533,34.654 C28.585,37.601 24.504,39.684 20.335,39.684" id="Fill-29" fill="#0099CE"></path>
            <path d="M20.336,37.816 C24.053,37.816 26.698,36.535 29.171,34.063 C34.335,28.896 34.616,20.801 29.791,15.977 C29.687,15.874 29.571,15.784 29.463,15.685 C33.625,20.191 33.284,27.471 28.597,32.159 C26.285,34.472 23.61,35.742 20.336,35.742 C17.065,35.742 14.39,34.472 12.077,32.159 C7.389,27.471 7.047,20.191 11.21,15.685 C11.103,15.784 10.988,15.874 10.883,15.977 C6.058,20.801 6.338,28.896 11.502,34.063 C13.976,36.535 16.621,37.816 20.336,37.816" id="Fill-30" fill="#0099CE"></path>
            <path d="M20.336,33.903 C23.063,33.903 24.776,32.883 26.496,31.161 C30.073,27.586 30.264,21.979 26.926,18.641 C26.827,18.541 26.72,18.456 26.619,18.365 C29.361,21.415 29.109,26.279 25.969,29.424 C24.4,30.991 22.65,31.956 20.336,31.956 C18.025,31.956 16.275,30.991 14.705,29.424 C11.565,26.279 11.313,21.415 14.054,18.365 C13.954,18.456 13.848,18.541 13.748,18.641 C10.41,21.979 10.602,27.586 14.178,31.161 C15.897,32.883 17.611,33.903 20.336,33.903" id="Fill-31" fill="#0099CE"></path>
            <path d="M20.336,28.367 C21.449,28.367 22.564,27.871 23.436,26.998 C25.117,25.315 25.249,22.725 23.799,21.078 C23.925,21.182 24.047,21.289 24.162,21.403 C26.076,23.316 25.619,26.883 23.918,28.585 C22.926,29.574 21.789,30.104 20.336,30.104 C18.885,30.104 17.748,29.574 16.757,28.585 C15.056,26.883 14.598,23.316 16.511,21.403 C16.627,21.289 16.75,21.182 16.875,21.078 C15.426,22.725 15.556,25.315 17.239,26.998 C18.111,27.871 19.224,28.367 20.336,28.367" id="Fill-32" fill="#0099CE"></path>
            <path d="M18.411,10.421 C18.409,9.356 19.27,8.495 20.337,8.495 C21.401,8.495 22.264,9.356 22.264,10.421 C22.264,11.484 21.401,12.35 20.336,12.35 C19.274,12.35 18.411,11.484 18.411,10.421" id="Fill-55" fill="#1A1919"></path>
            <path d="M17.66,3.584 C17.659,2.104 18.855,0.908 20.338,0.908 C21.815,0.908 23.013,2.104 23.013,3.584 C23.013,5.059 21.815,6.262 20.336,6.262 C18.857,6.262 17.66,5.059 17.66,3.584" id="Fill-56" fill="#1A1919"></path>
            <path d="M18.967,15.804 C18.965,15.048 19.579,14.435 20.336,14.435 C21.092,14.435 21.709,15.048 21.709,15.804 C21.709,16.562 21.092,17.176 20.336,17.176 C19.581,17.176 18.967,16.562 18.967,15.804" id="Fill-57" fill="#1A1919"></path>
        </g>
    </g>
</svg>